<svg id="e4BFTo6SMNf1" xmlns="http://www.w3.org/2000/svg" xmlns:xlink="http://www.w3.org/1999/xlink" viewBox="0 0 300 300" shape-rendering="geometricPrecision" text-rendering="geometricPrecision" project-id="4981c99f84064f39acc3f7a90a4cad95" export-id="0224979d8ac04dc2aaea25938035af23" cached="false"><g transform="matrix(2.151924 0 0 2.422748-172.788607-213.412216)"><rect width="17.139698" height="92.333211" rx="8.57" ry="8.57" transform="translate(84.48223 103.833435)" fill="#2563eb" stroke="#2563eb"/><path d="M106.87431,183.83693v-75.19321c0-4.73308,3.83685-8.57,8.56985-8.57s8.56985,3.83692,8.56985,8.57v75.19321c0,4.73308-3.83685,8.57-8.56985,8.57s-8.56985-3.83692-8.56985-8.57Z" transform="translate(24.603867 3.759715)" fill="#2563eb" stroke="#2563eb"/><rect width="17.139698" height="92.333211" rx="8.57" ry="8.57" transform="matrix(1 0 0 0.572453 108.256649 103.833434)" fill="#2563eb" stroke="#2563eb"/><rect width="34.279396" height="87.910063" rx="0" ry="0" transform="matrix(1 0 0 1.050314 155.252595 103.833456)" fill="#2563eb" stroke="#2563eb"/><ellipse rx="29.579801" ry="24.96313" transform="matrix(1.018688 0 0 1.000002 185.385182 128.796535)" fill="#2563eb" stroke="#2563eb"/><ellipse rx="29.579801" ry="24.96313" transform="matrix(1.018688 0 0 1.000002 185.385182 171.203445)" fill="#2563eb" stroke="#2563eb"/><ellipse rx="15.481017" ry="14.37523" transform="translate(185.385182 128.796535)" fill="#fff" stroke="rgba(255,255,255,0)"/><ellipse rx="15.481017" ry="14.37523" transform="translate(185.385182 171.065089)" fill="#fff" stroke="#fff"/></g></svg>
